<svg xmlns="http://www.w3.org/2000/svg" viewBox="0 0 32 32">
  <rect width="32" height="32" fill="#0a0a12"/>
  <rect x="4" y="4" width="4" height="4" fill="#00ff88"/>
  <rect x="8" y="4" width="4" height="4" fill="#00ff88"/>
  <rect x="12" y="4" width="4" height="4" fill="#00ff88"/>
  <rect x="4" y="8" width="4" height="4" fill="#00ff88"/>
  <rect x="4" y="12" width="4" height="4" fill="#00ff88"/>
  <rect x="8" y="12" width="4" height="4" fill="#00ff88"/>
  <rect x="12" y="12" width="4" height="4" fill="#00ff88"/>
  <rect x="4" y="16" width="4" height="4" fill="#00ff88"/>
  <rect x="4" y="20" width="4" height="4" fill="#00ff88"/>
  <rect x="4" y="24" width="4" height="4" fill="#00ff88"/>
  <rect x="8" y="24" width="4" height="4" fill="#00ff88"/>
  <rect x="12" y="24" width="4" height="4" fill="#00ff88"/>
  <rect x="18" y="8" width="4" height="4" fill="#ff3366"/>
  <rect x="22" y="8" width="4" height="4" fill="#ff3366"/>
  <rect x="26" y="8" width="4" height="4" fill="#ff3366"/>
  <rect x="18" y="12" width="4" height="4" fill="#ff3366"/>
  <rect x="26" y="12" width="4" height="4" fill="#ff3366"/>
  <rect x="18" y="16" width="4" height="4" fill="#ff3366"/>
  <rect x="22" y="16" width="4" height="4" fill="#ff3366"/>
  <rect x="26" y="16" width="4" height="4" fill="#ff3366"/>
  <rect x="18" y="20" width="4" height="4" fill="#ff3366"/>
  <rect x="26" y="20" width="4" height="4" fill="#ff3366"/>
  <rect x="18" y="24" width="4" height="4" fill="#ff3366"/>
  <rect x="26" y="24" width="4" height="4" fill="#ff3366"/>
</svg>
